<svg xmlns="http://www.w3.org/2000/svg" class="mark" viewBox="0 0 64 64" aria-hidden="true" focusable="false"><path class="m-star" d="M32 3.5 L40.6 11.4 H52.6 V23.4 L60.5 32 L52.6 40.6 V52.6 H40.6 L32 60.5 L23.4 52.6 H11.4 V40.6 L3.5 32 L11.4 23.4 V11.4 H23.4 Z"/><path class="m-acc m-route" d="M19.6 47.4 C20.2 36.4 27.2 28.6 36.4 24.4 L39.2 29.4 C31.4 32.4 25.6 38.4 23.8 47.8 C23.2 49.6 19.6 49.4 19.6 47.4 Z"/><path class="m-acc m-dot" d="M36 23.5 A6.5 6.5 0 1 0 49 23.5 A6.5 6.5 0 1 0 36 23.5 Z"/></svg>
